<svg width="30" height="39" viewBox="0 0 30 39" fill="none" xmlns="http://www.w3.org/2000/svg">
<path d="M9.30083 1.1C5.40083 2.2 1.30083 7 0.400825 11.5C0.000825437 14 0.500826 16.3 2.50083 20.7C4.90083 25.9 13.8008 38.9 15.0008 39C15.9008 39 23.4008 28.3 26.3008 22.9C31.2008 13.7 29.3008 5.4 21.7008 1.9C17.1008 -0.100001 14.2008 -0.300001 9.30083 1.1ZM21.8008 8.6C24.8008 12 24.6008 15.6 21.1008 19.1C17.8008 22.3 14.4008 22.8 10.1008 20.5C3.80083 17.3 4.90083 8.4 12.0008 5.7C14.8008 4.6 19.5008 6 21.8008 8.6Z" fill="#0D181D"/>
</svg>