<svg width="316" height="122" viewBox="0 0 316 122" fill="none" xmlns="http://www.w3.org/2000/svg">
<path d="M0 61V122H158H316V61V-1.81794e-06H158H0V61ZM131.3 43.9C145.9 52.4 157.8 59.5 157.7 59.6C157.6 59.7 144.9 67.1 129.5 76C114.1 84.9 100 93.1 98.3 94.2L95 96.2V59.6V23L99.8 25.7C102.4 27.3 116.6 35.5 131.3 43.9ZM201.3 43.9C215.9 52.4 227.8 59.5 227.7 59.6C227.6 59.7 214.9 67.1 199.5 76C184.1 84.9 170 93.1 168.3 94.2L165 96.2V59.6V23L169.8 25.7C172.4 27.3 186.6 35.5 201.3 43.9Z" fill="#0D181D"/>
</svg>