<svg width="316" height="122" viewBox="0 0 316 122" fill="none" xmlns="http://www.w3.org/2000/svg">
<path d="M316 61V122H158H-4.70877e-06V61V-1.81794e-06H158H316V61ZM184.7 43.9C170.1 52.4 158.2 59.5 158.3 59.6C158.4 59.7 171.1 67.1 186.5 76C201.9 84.9 216 93.1 217.7 94.2L221 96.2V59.6V23L216.2 25.7C213.6 27.3 199.4 35.5 184.7 43.9ZM114.7 43.9C100.1 52.4 88.2 59.5 88.3 59.6C88.4 59.7 101.1 67.1 116.5 76C131.9 84.9 146 93.1 147.7 94.2L151 96.2V59.6V23L146.2 25.7C143.6 27.3 129.4 35.5 114.7 43.9Z" fill="#0D181D"/>
</svg>